<?xml version="1.0" encoding="UTF-8" standalone="no"?>
<svg
   xmlns:dc="http://purl.org/dc/elements/1.1/"
   xmlns:cc="http://creativecommons.org/ns#"
   xmlns:rdf="http://www.w3.org/1999/02/22-rdf-syntax-ns#"
   xmlns:svg="http://www.w3.org/2000/svg"
   xmlns="http://www.w3.org/2000/svg"
   xmlns:sodipodi="http://sodipodi.sourceforge.net/DTD/sodipodi-0.dtd"
   xmlns:inkscape="http://www.inkscape.org/namespaces/inkscape"
   viewBox="0 0 500 500"
   version="1.1"
   id="svg15"
   sodipodi:docname="Բ_handwritten.svg"
   inkscape:version="0.92.5 (2060ec1f9f, 2020-04-08)">
  <metadata
     id="metadata21">
    <rdf:RDF>
      <cc:Work
         rdf:about="">
        <dc:format>image/svg+xml</dc:format>
        <dc:type
           rdf:resource="http://purl.org/dc/dcmitype/StillImage" />
      </cc:Work>
    </rdf:RDF>
  </metadata>
  <defs
     id="defs19" />
  <sodipodi:namedview
     pagecolor="#ffffff"
     bordercolor="#666666"
     borderopacity="1"
     objecttolerance="10"
     gridtolerance="10"
     guidetolerance="10"
     inkscape:pageopacity="0"
     inkscape:pageshadow="2"
     inkscape:window-width="1920"
     inkscape:window-height="1009"
     id="namedview17"
     showgrid="false"
     inkscape:zoom="0.944"
     inkscape:cx="152.62301"
     inkscape:cy="227.52839"
     inkscape:window-x="0"
     inkscape:window-y="0"
     inkscape:window-maximized="1"
     inkscape:current-layer="svg15" />
  <g
     id="layer1"
     transform="matrix(0.888889, 0, 0, 1.675513, 50, -1294.286133)"
     style="display:inline;fill:none;stroke-linecap:round;stroke-linejoin:round">
    <path
       id="path4659"
       d="m 0,1041.5522 450.00002,0"
       style="fill:none;fill-rule:evenodd;stroke:#b3b3b3;stroke-width:1.99999988;stroke-linecap:round;stroke-linejoin:round;stroke-opacity:1" />
    <path
       id="path4549"
       d="m 0,962.36216 450.00002,0"
       style="fill:none;fill-rule:evenodd;stroke:#b3b3b3;stroke-width:1.99999988;stroke-linecap:round;stroke-linejoin:round;stroke-opacity:1" />
    <path
       style="fill:none;fill-rule:evenodd;stroke:#b3b3b3;stroke-width:1.99999988;stroke-linecap:round;stroke-linejoin:round;stroke-opacity:1"
       d="m 0,881.32716 450.00002,0"
       id="path4551" />
    <path
       style="fill:none;fill-rule:evenodd;stroke:#b3b3b3;stroke-width:1.99999988;stroke-linecap:round;stroke-linejoin:round;stroke-opacity:1"
       d="m 0,802.31316 450.00002,0"
       id="path4555" />
  </g>
  <path
     style="stroke:rgb(0, 0, 0);fill:none;stroke-width:10px;stroke-linecap:round;stroke-linejoin:round"
     d="M 124.824 138.507 C 122.617 68.73 204.864 24.027 184.296 85.081 C 127.14 254.744 59.915 452.583 59.915 452.583 L 181.556 94.589 C 217.678 26.082 297.885 47.966 274.33 127.171 C 271.652 136.178 262.709 162.051 255.346 183.112"
     id="path7" />
  <path
     style="fill:none;stroke:#000000;stroke-width:10px;stroke-linecap:round;stroke-linejoin:round"
     d="m 109.338,307.796 c -4.165,-5.216 49.24377,-39.39565 72.26,-2.44 16.07532,25.81108 59.769,4.772 56.22,1.194"
     id="path9"
     inkscape:connector-curvature="0"
     sodipodi:nodetypes="csc" />
  <path
     style="stroke:rgb(0, 0, 0);fill:none;stroke-width:10px;stroke-linecap:round;stroke-linejoin:round"
     d="M 351.142 219.384 C 293.986 389.047 272.175 452.54 272.175 452.54 L 343.782 241.808 C 351.664 212.236 402.737 176.692 421.193 188.424 C 433.637 196.334 427.44 227.329 421.359 248.984"
     id="path11" />
  <path
     style="fill:none;stroke:#000000;stroke-width:10px;stroke-linecap:round;stroke-linejoin:round"
     d="m 321.785,307.492 c -2.963,-5.216 32.89226,-40.81457 46.632,-3.646 9.70975,26.2667 40.313,4.025 38.679,-0.034"
     id="path13"
     inkscape:connector-curvature="0"
     sodipodi:nodetypes="csc" />
</svg>
