<?xml version="1.0" encoding="UTF-8" standalone="no"?>
<svg
   xmlns:dc="http://purl.org/dc/elements/1.1/"
   xmlns:cc="http://creativecommons.org/ns#"
   xmlns:rdf="http://www.w3.org/1999/02/22-rdf-syntax-ns#"
   xmlns:svg="http://www.w3.org/2000/svg"
   xmlns="http://www.w3.org/2000/svg"
   xmlns:sodipodi="http://sodipodi.sourceforge.net/DTD/sodipodi-0.dtd"
   xmlns:inkscape="http://www.inkscape.org/namespaces/inkscape"
   viewBox="0 0 500 500"
   version="1.1"
   id="svg11"
   sodipodi:docname="Ն_handwritten.svg"
   inkscape:version="0.92.5 (2060ec1f9f, 2020-04-08)">
  <metadata
     id="metadata17">
    <rdf:RDF>
      <cc:Work
         rdf:about="">
        <dc:format>image/svg+xml</dc:format>
        <dc:type
           rdf:resource="http://purl.org/dc/dcmitype/StillImage" />
      </cc:Work>
    </rdf:RDF>
  </metadata>
  <defs
     id="defs15" />
  <sodipodi:namedview
     pagecolor="#ffffff"
     bordercolor="#666666"
     borderopacity="1"
     objecttolerance="10"
     gridtolerance="10"
     guidetolerance="10"
     inkscape:pageopacity="0"
     inkscape:pageshadow="2"
     inkscape:window-width="1920"
     inkscape:window-height="1009"
     id="namedview13"
     showgrid="false"
     inkscape:zoom="1.888"
     inkscape:cx="250"
     inkscape:cy="271.18644"
     inkscape:window-x="0"
     inkscape:window-y="0"
     inkscape:window-maximized="1"
     inkscape:current-layer="svg11" />
  <g
     id="g-1"
     transform="matrix(0.888889, 0, 0, 1.675513, 50, -1294.286133)"
     style="display:inline;fill:none;stroke-linecap:round;stroke-linejoin:round">
    <path
       id="path4659"
       d="m 0,1041.5522 450.00002,0"
       style="fill:none;fill-rule:evenodd;stroke:#b3b3b3;stroke-width:1.99999988;stroke-linecap:round;stroke-linejoin:round;stroke-opacity:1" />
    <path
       id="path4549"
       d="m 0,962.36216 450.00002,0"
       style="fill:none;fill-rule:evenodd;stroke:#b3b3b3;stroke-width:1.99999988;stroke-linecap:round;stroke-linejoin:round;stroke-opacity:1" />
    <path
       style="fill:none;fill-rule:evenodd;stroke:#b3b3b3;stroke-width:1.99999988;stroke-linecap:round;stroke-linejoin:round;stroke-opacity:1"
       d="m 0,881.32716 450.00002,0"
       id="path4551" />
    <path
       style="fill:none;fill-rule:evenodd;stroke:#b3b3b3;stroke-width:1.99999988;stroke-linecap:round;stroke-linejoin:round;stroke-opacity:1"
       d="m 0,802.31316 450.00002,0"
       id="path4555" />
  </g>
  <path
     style="fill:none;stroke:#000000;stroke-width:10px;stroke-linecap:round;stroke-linejoin:round"
     d="m 89.165,134.781 c 11.454,8.272 61.33095,-23.99597 29.428,-73.334 -23.899049,-36.959968 -17.3706,8.507512 5.452,35.339 7.4414,8.74851 45.70385,-8.218047 40.398,8.912 -9.24415,29.84495 -44.53737,133.30102 -51.961,156.45 -26.978,84.125 30.661,69.128 72.725,5.472 14.66,-22.186 27.863,-64.244 33.044,-85.585 -2.19,5.825 -19.569,64.457 -25.007,83.285 -16.024,55.476 7.769,65.107 30.891,38.553"
     id="path7"
     inkscape:connector-curvature="0"
     sodipodi:nodetypes="csssscccc" />
  <path
     style="fill:none;stroke:#000000;stroke-width:10px;stroke-linecap:round;stroke-linejoin:round"
     d="m 295.406,48.08 c -0.353,14.833 -17.46754,35.228463 -5.887,48.843 7.44146,8.74846 45.70385,-8.218047 40.398,8.912 -9.24415,29.84495 -41.81937,132.83602 -49.243,155.985 -26.978,84.125 30.661,69.128 72.725,5.472 14.66,-22.186 27.863,-64.244 33.044,-85.585 -2.19,5.825 -19.569,64.457 -25.007,83.285 -16.024,55.476 7.769,65.107 30.891,38.553"
     id="path9"
     inkscape:connector-curvature="0"
     sodipodi:nodetypes="cssscccc" />
</svg>
