<?xml version="1.0" encoding="UTF-8" standalone="no"?>
<svg
   xmlns:dc="http://purl.org/dc/elements/1.1/"
   xmlns:cc="http://creativecommons.org/ns#"
   xmlns:rdf="http://www.w3.org/1999/02/22-rdf-syntax-ns#"
   xmlns:svg="http://www.w3.org/2000/svg"
   xmlns="http://www.w3.org/2000/svg"
   xmlns:sodipodi="http://sodipodi.sourceforge.net/DTD/sodipodi-0.dtd"
   xmlns:inkscape="http://www.inkscape.org/namespaces/inkscape"
   viewBox="0 0 500 500"
   version="1.1"
   id="svg15"
   sodipodi:docname="Եւ_handwritten.svg"
   inkscape:version="0.92.5 (2060ec1f9f, 2020-04-08)">
  <metadata
     id="metadata21">
    <rdf:RDF>
      <cc:Work
         rdf:about="">
        <dc:format>image/svg+xml</dc:format>
        <dc:type
           rdf:resource="http://purl.org/dc/dcmitype/StillImage" />
      </cc:Work>
    </rdf:RDF>
  </metadata>
  <defs
     id="defs19" />
  <sodipodi:namedview
     pagecolor="#ffffff"
     bordercolor="#666666"
     borderopacity="1"
     objecttolerance="10"
     gridtolerance="10"
     guidetolerance="10"
     inkscape:pageopacity="0"
     inkscape:pageshadow="2"
     inkscape:window-width="1920"
     inkscape:window-height="1009"
     id="namedview17"
     showgrid="false"
     inkscape:zoom="3.776"
     inkscape:cx="271.18644"
     inkscape:cy="355.9322"
     inkscape:window-x="0"
     inkscape:window-y="0"
     inkscape:window-maximized="1"
     inkscape:current-layer="svg15" />
  <g
     id="g-1"
     transform="matrix(0.888889, 0, 0, 1.675513, 50, -1294.286133)"
     style="display:inline;fill:none;stroke-linecap:round;stroke-linejoin:round">
    <path
       id="path4659"
       d="m 0,1041.5522 450.00002,0"
       style="fill:none;fill-rule:evenodd;stroke:#b3b3b3;stroke-width:1.99999988;stroke-linecap:round;stroke-linejoin:round;stroke-opacity:1" />
    <path
       id="path4549"
       d="m 0,962.36216 450.00002,0"
       style="fill:none;fill-rule:evenodd;stroke:#b3b3b3;stroke-width:1.99999988;stroke-linecap:round;stroke-linejoin:round;stroke-opacity:1" />
    <path
       style="fill:none;fill-rule:evenodd;stroke:#b3b3b3;stroke-width:1.99999988;stroke-linecap:round;stroke-linejoin:round;stroke-opacity:1"
       d="m 0,881.32716 450.00002,0"
       id="path4551" />
    <path
       style="fill:none;fill-rule:evenodd;stroke:#b3b3b3;stroke-width:1.99999988;stroke-linecap:round;stroke-linejoin:round;stroke-opacity:1"
       d="m 0,802.31316 450.00002,0"
       id="path4555" />
  </g>
  <path
     style="fill:none;stroke:#000000;stroke-width:10px;stroke-linecap:round;stroke-linejoin:round"
     d="M 76.23,132.302 C 74.023,62.525 156.27,17.822 135.702,78.876 78.546,248.539 76.552756,246.93735 71.181,263.688 c -26.978,84.125 10.682,65.335 52.746,1.679 14.66,-22.186 37.592,-87.919 34.74,-79.973 -8.151,22.702 -22.675,63.726 -26.703,77.673 -16.024,55.476 7.769,65.107 30.891,38.553"
     id="path7"
     inkscape:connector-curvature="0"
     sodipodi:nodetypes="ccscccc" />
  <path
     style="fill:none;stroke:#000000;stroke-width:10px;stroke-linecap:round;stroke-linejoin:round"
     d="m 116.447,139.55 c -2.963,-5.216 34.50415,-38.66923 50.558,-2.44 11.72461,26.45929 46.47,3.091 43.945,-0.487"
     id="path9"
     inkscape:connector-curvature="0"
     sodipodi:nodetypes="csc" />
  <path
     style="fill:none;stroke:#000000;stroke-width:10px;stroke-linecap:round;stroke-linejoin:round"
     d="m 373.983,52.466 c -57.156,169.663 -65.81051,186.86679 -73.02,209.348 -26.978,84.125 28.747,65.151 70.811,1.495 14.66,-22.186 29.195,-58.589 34.376,-79.93 -2.19,5.825 -23.322,66.181 -29.259,84.858 -15.407,48.469 -18.571,55.406 -12.11,41.807 11.193,-23.558 35.49903,-26.16402 40.683,-15.041 8.18303,17.55798 16.377,35.123 28.015,0.335"
     id="path11"
     inkscape:connector-curvature="0"
     sodipodi:nodetypes="csccccsc" />
  <path
     style="fill:none;stroke:#000000;stroke-width:10px;stroke-linecap:round;stroke-linejoin:round"
     d="m 205.489,185.304 c -11.165,30.885 -19.578,52.279 -27.269,74.818 -27.757,81.349 34.084,70.152 57.172,8.199 19.456,-52.206 88.363,-266.967 70.784,-207.855 -4.79,16.108 -110.5,324.62 -120.838,354.663 -19.59,56.927 64.201,32.423 72.202,2.543"
     id="path13"
     inkscape:connector-curvature="0"
     sodipodi:nodetypes="cccccc" />
</svg>
