<?xml version="1.0" encoding="UTF-8" standalone="no"?>
<svg
   xmlns:dc="http://purl.org/dc/elements/1.1/"
   xmlns:cc="http://creativecommons.org/ns#"
   xmlns:rdf="http://www.w3.org/1999/02/22-rdf-syntax-ns#"
   xmlns:svg="http://www.w3.org/2000/svg"
   xmlns="http://www.w3.org/2000/svg"
   xmlns:sodipodi="http://sodipodi.sourceforge.net/DTD/sodipodi-0.dtd"
   xmlns:inkscape="http://www.inkscape.org/namespaces/inkscape"
   viewBox="0 0 500 500"
   version="1.1"
   id="svg15"
   sodipodi:docname="ิต_handwritten.svg"
   inkscape:version="0.92.5 (2060ec1f9f, 2020-04-08)">
  <metadata
     id="metadata21">
    <rdf:RDF>
      <cc:Work
         rdf:about="">
        <dc:format>image/svg+xml</dc:format>
        <dc:type
           rdf:resource="http://purl.org/dc/dcmitype/StillImage" />
      </cc:Work>
    </rdf:RDF>
  </metadata>
  <defs
     id="defs19" />
  <sodipodi:namedview
     pagecolor="#ffffff"
     bordercolor="#666666"
     borderopacity="1"
     objecttolerance="10"
     gridtolerance="10"
     guidetolerance="10"
     inkscape:pageopacity="0"
     inkscape:pageshadow="2"
     inkscape:window-width="1920"
     inkscape:window-height="1009"
     id="namedview17"
     showgrid="false"
     inkscape:zoom="1.888"
     inkscape:cx="239.40678"
     inkscape:cy="218.22034"
     inkscape:window-x="0"
     inkscape:window-y="0"
     inkscape:window-maximized="1"
     inkscape:current-layer="svg15" />
  <g
     id="layer1"
     transform="matrix(0.888889, 0, 0, 1.675513, 50, -1294.286133)"
     style="display:inline;fill:none;stroke-linecap:round;stroke-linejoin:round">
    <path
       id="path4659"
       d="m 0,1041.5522 450.00002,0"
       style="fill:none;fill-rule:evenodd;stroke:#b3b3b3;stroke-width:1.99999988;stroke-linecap:round;stroke-linejoin:round;stroke-opacity:1" />
    <path
       id="path4549"
       d="m 0,962.36216 450.00002,0"
       style="fill:none;fill-rule:evenodd;stroke:#b3b3b3;stroke-width:1.99999988;stroke-linecap:round;stroke-linejoin:round;stroke-opacity:1" />
    <path
       style="fill:none;fill-rule:evenodd;stroke:#b3b3b3;stroke-width:1.99999988;stroke-linecap:round;stroke-linejoin:round;stroke-opacity:1"
       d="m 0,881.32716 450.00002,0"
       id="path4551" />
    <path
       style="fill:none;fill-rule:evenodd;stroke:#b3b3b3;stroke-width:1.99999988;stroke-linecap:round;stroke-linejoin:round;stroke-opacity:1"
       d="m 0,802.31316 450.00002,0"
       id="path4555" />
  </g>
  <path
     style="fill:none;stroke:#000000;stroke-width:10px;stroke-linecap:round;stroke-linejoin:round"
     d="m 105.137,135.641 c -2.207,-69.777 78.54,-114.965 59.472,-53.426 -17.178,55.439 -57.639,174.306 -57.639,174.306 -26.978,84.125 5.922,71.858 47.986,8.202 14.66,-22.186 26.379,-58.127 31.56,-79.468 -2.19,5.825 -18.085,58.34 -23.523,77.168 -16.024,55.476 7.769,65.107 30.891,38.553"
     id="path7"
     inkscape:connector-curvature="0"
     sodipodi:nodetypes="ccccccc" />
  <path
     style="fill:none;stroke:#000000;stroke-width:10px;stroke-linecap:round;stroke-linejoin:round"
     d="m 336.658,137.159 c -3.96,-3.782 65.934,-1.646 86.408,-2.07"
     id="path9"
     inkscape:connector-curvature="0"
     sodipodi:nodetypes="cc" />
  <path
     style="fill:none;stroke:#000000;stroke-width:10px;stroke-linecap:round;stroke-linejoin:round"
     d="m 146.118,140.212 c -3.44,-5.216 39.91047,-38.95494 58.695,-2.44 13.48216,26.20775 53.949,3.091 51.018,-0.487"
     id="path11"
     inkscape:connector-curvature="0"
     sodipodi:nodetypes="csc" />
  <path
     style="fill:none;stroke:#000000;stroke-width:10px;stroke-linecap:round;stroke-linejoin:round"
     d="m 365.744,51.254 c -28.368,84.122 -70.636,205.904 -70.636,205.904 -26.978,84.125 5.922,71.858 47.986,8.202 14.66,-22.186 25.981,-57.448 31.162,-78.789 -2.19,5.825 -17.687,57.661 -23.125,76.489 -16.024,55.476 7.769,65.107 30.891,38.553"
     id="path13"
     inkscape:connector-curvature="0"
     sodipodi:nodetypes="cccccc" />
</svg>
