<?xml version="1.0" encoding="UTF-8" standalone="no"?>
<svg
   xmlns:dc="http://purl.org/dc/elements/1.1/"
   xmlns:cc="http://creativecommons.org/ns#"
   xmlns:rdf="http://www.w3.org/1999/02/22-rdf-syntax-ns#"
   xmlns:svg="http://www.w3.org/2000/svg"
   xmlns="http://www.w3.org/2000/svg"
   xmlns:sodipodi="http://sodipodi.sourceforge.net/DTD/sodipodi-0.dtd"
   xmlns:inkscape="http://www.inkscape.org/namespaces/inkscape"
   viewBox="0 0 500 500"
   version="1.1"
   id="svg12"
   sodipodi:docname="Խ_handwritten.svg"
   inkscape:version="0.92.5 (2060ec1f9f, 2020-04-08)">
  <metadata
     id="metadata18">
    <rdf:RDF>
      <cc:Work
         rdf:about="">
        <dc:format>image/svg+xml</dc:format>
        <dc:type
           rdf:resource="http://purl.org/dc/dcmitype/StillImage" />
      </cc:Work>
    </rdf:RDF>
  </metadata>
  <defs
     id="defs16" />
  <sodipodi:namedview
     pagecolor="#ffffff"
     bordercolor="#666666"
     borderopacity="1"
     objecttolerance="10"
     gridtolerance="10"
     guidetolerance="10"
     inkscape:pageopacity="0"
     inkscape:pageshadow="2"
     inkscape:window-width="1920"
     inkscape:window-height="1009"
     id="namedview14"
     showgrid="false"
     inkscape:zoom="1.3350176"
     inkscape:cx="257.49054"
     inkscape:cy="250"
     inkscape:window-x="0"
     inkscape:window-y="0"
     inkscape:window-maximized="1"
     inkscape:current-layer="svg12" />
  <g
     id="g-1"
     transform="matrix(0.888889, 0, 0, 1.675513, 50, -1294.286133)"
     style="display: inline;">
    <path
       id="path4659"
       d="m 0,1041.5522 450.00002,0"
       style="fill:none;fill-rule:evenodd;stroke:#b3b3b3;stroke-width:1.99999988;stroke-linecap:butt;stroke-linejoin:miter;stroke-opacity:1" />
    <path
       id="path4549"
       d="m 0,962.36216 450.00002,0"
       style="fill:none;fill-rule:evenodd;stroke:#b3b3b3;stroke-width:1.99999988;stroke-linecap:butt;stroke-linejoin:miter;stroke-opacity:1" />
    <path
       style="fill:none;fill-rule:evenodd;stroke:#b3b3b3;stroke-width:1.99999988;stroke-linecap:butt;stroke-linejoin:miter;stroke-opacity:1"
       d="m 0,881.32716 450.00002,0"
       id="path4551" />
    <path
       style="fill:none;fill-rule:evenodd;stroke:#b3b3b3;stroke-width:1.99999988;stroke-linecap:butt;stroke-linejoin:miter;stroke-opacity:1"
       d="m 0,802.31316 450.00002,0"
       id="path4555" />
  </g>
  <path
     style="stroke:#000000;stroke-width:10px;paint-order:fill;fill:none;stroke-linecap:round;stroke-linejoin:round"
     d="M 121.786,132.703 C 119.579,62.926 201.826,18.223 181.258,79.277 124.102,248.94 57.145,447.263 57.145,447.263 l 73.363,-217.012 c 36.122,-68.507 76.017,-56.645 44.07,19.562 -48.397,115.446 27.481,57.323 48.955,3.878 6.273,-15.612 39.679,-92.327 27.615,-61.478 -16.077,41.11 -86.832,182.859 5.316,96.298"
     id="path7"
     inkscape:connector-curvature="0"
     sodipodi:nodetypes="cccccccc" />
  <g
     id="layer1"
     transform="matrix(0.888889, 0, 0, 1.675513, 50, -1294.286133)"
     style="display: inline;" />
  <path
     style="stroke:#000000;stroke-width:10px;paint-order:fill;stroke-linecap:round;stroke-linejoin:round;fill:none"
     d="M 367.258,50.892 C 310.102,220.555 233.539,448.628 233.539,448.628 l 73.363,-217.012 c 36.122,-68.507 76.017,-56.645 44.07,19.562 -48.397,115.446 28.546,57.323 50.02,3.878 6.273,-15.612 39.679,-92.327 27.615,-61.478 -16.077,41.11 -86.832,182.859 5.316,96.298"
     id="path10"
     inkscape:connector-curvature="0"
     sodipodi:nodetypes="ccccccc" />
</svg>
