<?xml version="1.0" encoding="UTF-8" standalone="no"?>
<svg
   xmlns:dc="http://purl.org/dc/elements/1.1/"
   xmlns:cc="http://creativecommons.org/ns#"
   xmlns:rdf="http://www.w3.org/1999/02/22-rdf-syntax-ns#"
   xmlns:svg="http://www.w3.org/2000/svg"
   xmlns="http://www.w3.org/2000/svg"
   xmlns:sodipodi="http://sodipodi.sourceforge.net/DTD/sodipodi-0.dtd"
   xmlns:inkscape="http://www.inkscape.org/namespaces/inkscape"
   viewBox="0 0 500 500"
   version="1.1"
   id="svg11"
   sodipodi:docname="Մ_handwritten.svg"
   inkscape:version="0.92.5 (2060ec1f9f, 2020-04-08)">
  <metadata
     id="metadata17">
    <rdf:RDF>
      <cc:Work
         rdf:about="">
        <dc:format>image/svg+xml</dc:format>
        <dc:type
           rdf:resource="http://purl.org/dc/dcmitype/StillImage" />
      </cc:Work>
    </rdf:RDF>
  </metadata>
  <defs
     id="defs15" />
  <sodipodi:namedview
     pagecolor="#ffffff"
     bordercolor="#666666"
     borderopacity="1"
     objecttolerance="10"
     gridtolerance="10"
     guidetolerance="10"
     inkscape:pageopacity="0"
     inkscape:pageshadow="2"
     inkscape:window-width="1920"
     inkscape:window-height="1009"
     id="namedview13"
     showgrid="false"
     inkscape:zoom="1.3350176"
     inkscape:cx="250"
     inkscape:cy="250"
     inkscape:window-x="0"
     inkscape:window-y="0"
     inkscape:window-maximized="1"
     inkscape:current-layer="svg11" />
  <g
     id="g-1"
     transform="matrix(0.888889, 0, 0, 1.675513, 50, -1294.286133)"
     style="display:inline;fill:none;stroke-linecap:round;stroke-linejoin:round">
    <path
       id="path4659"
       d="m 0,1041.5522 450.00002,0"
       style="fill:none;fill-rule:evenodd;stroke:#b3b3b3;stroke-width:1.99999988;stroke-linecap:round;stroke-linejoin:round;stroke-opacity:1" />
    <path
       id="path4549"
       d="m 0,962.36216 450.00002,0"
       style="fill:none;fill-rule:evenodd;stroke:#b3b3b3;stroke-width:1.99999988;stroke-linecap:round;stroke-linejoin:round;stroke-opacity:1" />
    <path
       style="fill:none;fill-rule:evenodd;stroke:#b3b3b3;stroke-width:1.99999988;stroke-linecap:round;stroke-linejoin:round;stroke-opacity:1"
       d="m 0,881.32716 450.00002,0"
       id="path4551" />
    <path
       style="fill:none;fill-rule:evenodd;stroke:#b3b3b3;stroke-width:1.99999988;stroke-linecap:round;stroke-linejoin:round;stroke-opacity:1"
       d="m 0,802.31316 450.00002,0"
       id="path4555" />
  </g>
  <path
     style="fill:none;stroke:#000000;stroke-width:10px;stroke-linecap:round;stroke-linejoin:round"
     d="m 20.594,277.117 c 9.499,-51.698 88.644,-129.496 64.996,-75.774 -75.57,171.675 -1.480718,117.36122 39.762,63.862 18.29028,-23.72578 28.042,-56.512 32.731,-71.302 L 205.229,50.117 117.347,319.613 192.241,87.951 c 11.233,-33.927 102.77,-76.31 46.838,33.751 -30.515,60.047 15.784,80.788 41.878,36.134"
     id="path7"
     inkscape:connector-curvature="0"
     sodipodi:nodetypes="csscccccc" />
  <path
     style="fill:none;stroke:#000000;stroke-width:10px;stroke-linecap:round;stroke-linejoin:round"
     d="m 283.154,205.919 c -57.295,146.273 4.05332,113.85236 33.291,87.462 22.23832,-20.07264 35.40623,-85.20395 40.167,-99.971 L 390.77,87.458 c 10.9659,-34.01427 102.76983,-76.310089 46.838,33.751 -30.51517,60.04691 15.784,80.788 41.878,36.134"
     id="path9"
     inkscape:connector-curvature="0"
     sodipodi:nodetypes="cssssc" />
</svg>
