<?xml version="1.0" encoding="UTF-8" standalone="no"?>
<svg
   xmlns:dc="http://purl.org/dc/elements/1.1/"
   xmlns:cc="http://creativecommons.org/ns#"
   xmlns:rdf="http://www.w3.org/1999/02/22-rdf-syntax-ns#"
   xmlns:svg="http://www.w3.org/2000/svg"
   xmlns="http://www.w3.org/2000/svg"
   xmlns:sodipodi="http://sodipodi.sourceforge.net/DTD/sodipodi-0.dtd"
   xmlns:inkscape="http://www.inkscape.org/namespaces/inkscape"
   viewBox="0 0 500 500"
   version="1.1"
   id="svg11"
   sodipodi:docname="Ու_handwritten.svg"
   inkscape:version="0.92.5 (2060ec1f9f, 2020-04-08)">
  <metadata
     id="metadata17">
    <rdf:RDF>
      <cc:Work
         rdf:about="">
        <dc:format>image/svg+xml</dc:format>
        <dc:type
           rdf:resource="http://purl.org/dc/dcmitype/StillImage" />
      </cc:Work>
    </rdf:RDF>
  </metadata>
  <defs
     id="defs15" />
  <sodipodi:namedview
     pagecolor="#ffffff"
     bordercolor="#666666"
     borderopacity="1"
     objecttolerance="10"
     gridtolerance="10"
     guidetolerance="10"
     inkscape:pageopacity="0"
     inkscape:pageshadow="2"
     inkscape:window-width="1920"
     inkscape:window-height="1009"
     id="namedview13"
     showgrid="false"
     inkscape:zoom="1.3350176"
     inkscape:cx="250"
     inkscape:cy="257.49054"
     inkscape:window-x="0"
     inkscape:window-y="0"
     inkscape:window-maximized="1"
     inkscape:current-layer="svg11" />
  <g
     id="g-1"
     transform="matrix(0.888889, 0, 0, 1.675513, 50, -1294.286133)"
     style="display:inline;fill:none;stroke-linecap:round;stroke-linejoin:round">
    <path
       id="path4659"
       d="m 0,1041.5522 450.00002,0"
       style="fill:none;fill-rule:evenodd;stroke:#b3b3b3;stroke-width:1.99999988;stroke-linecap:round;stroke-linejoin:round;stroke-opacity:1" />
    <path
       id="path4549"
       d="m 0,962.36216 450.00002,0"
       style="fill:none;fill-rule:evenodd;stroke:#b3b3b3;stroke-width:1.99999988;stroke-linecap:round;stroke-linejoin:round;stroke-opacity:1" />
    <path
       style="fill:none;fill-rule:evenodd;stroke:#b3b3b3;stroke-width:1.99999988;stroke-linecap:round;stroke-linejoin:round;stroke-opacity:1"
       d="m 0,881.32716 450.00002,0"
       id="path4551" />
    <path
       style="fill:none;fill-rule:evenodd;stroke:#b3b3b3;stroke-width:1.99999988;stroke-linecap:round;stroke-linejoin:round;stroke-opacity:1"
       d="m 0,802.31316 450.00002,0"
       id="path4555" />
  </g>
  <path
     style="fill:none;stroke:#000000;stroke-width:10px;stroke-linecap:round;stroke-linejoin:round"
     d="M 37.145,136.995 C 34.938,67.218 117.185,22.515 96.617,83.569 39.461,253.232 17.464,316.522 17.464,316.522 L 93.877,93.077 c 36.122,-68.507 104.118,-49.565 80.563,29.64 -3.727,12.535 -32.448,94.431 -52.913,165.442 -14.831,51.463 44.57094,35.79694 72.105,8.261 16.43194,-16.43306 27.50681,-56.35506 39.711,-98.096 10.58181,-36.19206 1.95618,7.90207 -39.704,117.22 -4.77282,12.52407 47.43183,-53.17798 51.896,-17.46 2.28583,18.28902 9.5,32.695 36.565,2.064"
     id="path7"
     inkscape:connector-curvature="0"
     sodipodi:nodetypes="ccccccssssc" />
  <path
     style="fill:none;stroke:#000000;stroke-width:10px;stroke-linecap:round;stroke-linejoin:round"
     d="m 329.003,192.516 c -57.156,169.663 -38.657,111.998 -38.525,111.938 l 29.062,-85.678 c 32.258,-62.147 75.21078,-36.43907 53.491,30.938 -4.01822,12.46493 0,0 -11.613,35.262 -16.75308,50.86947 20.02796,38.80496 45.894,9.697 14.78496,-16.63804 26.09481,-55.37506 38.299,-97.116 10.58181,-36.19206 2.18018,8.76807 -39.48,118.086 -4.77282,12.52407 47.43183,-53.17798 51.896,-17.46 2.28583,18.28902 9.5,32.695 36.565,2.064"
     id="path9"
     inkscape:connector-curvature="0"
     sodipodi:nodetypes="cccssssssc" />
</svg>
